
      <svg data-logo="logo" xmlns="http://www.w3.org/2000/svg" viewBox="0 0 130 40">
        <g id="logogram" transform="translate(0, 0) rotate(0) "><path d="M65.1428 40C76.1885 40 85.1426 31.0456 85.1426 19.9999C85.1426 8.9543 76.1885 0 65.1428 0C54.0971 0 45.1427 8.9543 45.1427 19.9999C45.1427 31.0456 54.0971 40 65.1428 40Z" fill="#394149"/><path d="M109.852 40C120.897 40 129.852 31.0456 129.852 19.9999C129.852 8.9543 120.897 0 109.852 0C98.8061 0 89.8517 8.9543 89.8517 19.9999C89.8517 31.0456 98.8061 40 109.852 40Z" fill="#394149"/><path d="M40.4335 0H0.452637V39.9808H40.4335V0Z" fill="#394149"/></g>
        <g id="logotype" transform="translate(130, 20)"></g>
        
      </svg>
    